<svg width="65" height="65" viewBox="0 0 24 24" fill="none" xmlns="http://www.w3.org/2000/svg">
<path fill-rule="evenodd" clip-rule="evenodd" d="M12 22C17.5228 22 22 17.5228 22 12C22 6.47715 17.5228 2 12 2C6.47715 2 2 6.47715 2 12C2 17.5228 6.47715 22 12 22ZM11.7526 7.34149C11.3889 6.92586 10.7571 6.88374 10.3415 7.24742C9.92587 7.6111 9.88375 8.24287 10.2474 8.6585L13.1712 12L10.2474 15.3415C9.88375 15.7571 9.92587 16.3889 10.3415 16.7526C10.7571 17.1163 11.3889 17.0741 11.7526 16.6585L15.8288 12L11.7526 7.34149Z" fill="#4E4E4E"/>
</svg>
