<svg width="65" height="65" viewBox="0 0 24 24" fill="none" xmlns="http://www.w3.org/2000/svg">
<path fill-rule="evenodd" clip-rule="evenodd" d="M12 22C6.47715 22 2 17.5228 2 12C2 6.47715 6.47715 2 12 2C17.5228 2 22 6.47715 22 12C22 17.5228 17.5228 22 12 22ZM12.2474 7.34149C12.6111 6.92586 13.2429 6.88374 13.6585 7.24742C14.0741 7.6111 14.1162 8.24287 13.7526 8.6585L10.8288 12L13.7526 15.3415C14.1162 15.7571 14.0741 16.3889 13.6585 16.7526C13.2429 17.1163 12.6111 17.0741 12.2474 16.6585L8.17122 12L12.2474 7.34149Z" fill="#4E4E4E"/>
</svg>
